<?xml version="1.0" encoding="UTF-8"?>
<svg xmlns="http://www.w3.org/2000/svg" width="800" height="400" viewBox="0 0 800 400">
  <defs>
    <marker id="arrow" markerWidth="10" markerHeight="8" refX="9" refY="4" orient="auto">
      <path d="M0,0 L10,4 L0,8 Z" fill="#2563EB"/>
    </marker>
    <filter id="shadow" x="-4%" y="-4%" width="108%" height="108%">
      <feDropShadow dx="0" dy="2" stdDeviation="3" flood-color="#94A3B8" flood-opacity="0.35"/>
    </filter>
  </defs>
  <rect width="800" height="400" fill="#F8FAFC"/>
  <g filter="url(#shadow)">
    <rect x="30" y="155" width="120" height="90" rx="12" fill="#FFFFFF" stroke="#94A3B8" stroke-width="2"/>
    <text x="90" y="195" text-anchor="middle" font-family="Microsoft YaHei, SimHei, sans-serif" font-size="15" font-weight="bold" fill="#1E293B">客户端</text>
    <text x="90" y="218" text-anchor="middle" font-family="Consolas, monospace" font-size="12" fill="#64748B">DNS 查询</text>
  </g>
  <g filter="url(#shadow)">
    <rect x="220" y="40" width="360" height="320" rx="16" fill="#FFFFFF" stroke="#2563EB" stroke-width="2.5"/>
    <rect x="220" y="40" width="360" height="44" rx="16" fill="#2563EB"/>
    <rect x="220" y="68" width="360" height="16" fill="#2563EB"/>
    <text x="400" y="70" text-anchor="middle" font-family="Microsoft YaHei, SimHei, sans-serif" font-size="16" font-weight="bold" fill="#FFFFFF">DNS-Relay-Server</text>
    <text x="400" y="108" text-anchor="middle" font-family="Consolas, monospace" font-size="13" fill="#334155">main.c · select() 主循环</text>
    <rect x="250" y="125" width="300" height="36" rx="8" fill="#EFF6FF" stroke="#3B82F6" stroke-width="1.5"/>
    <text x="400" y="148" text-anchor="middle" font-family="Consolas, monospace" font-size="12" fill="#1D4ED8">dns_parse_query()</text>
    <line x1="400" y1="161" x2="400" y2="178" stroke="#2563EB" stroke-width="2" marker-end="url(#arrow)"/>
    <rect x="250" y="178" width="300" height="36" rx="8" fill="#EFF6FF" stroke="#3B82F6" stroke-width="1.5"/>
    <text x="400" y="201" text-anchor="middle" font-family="Consolas, monospace" font-size="12" fill="#1D4ED8">config_lookup() → 本地表</text>
    <rect x="245" y="235" width="95" height="52" rx="8" fill="#FEF2F2" stroke="#EF4444" stroke-width="1.5"/>
    <text x="292" y="258" text-anchor="middle" font-family="Microsoft YaHei, SimHei, sans-serif" font-size="11" fill="#B91C1C">0.0.0.0</text>
    <text x="292" y="275" text-anchor="middle" font-family="Microsoft YaHei, SimHei, sans-serif" font-size="11" font-weight="bold" fill="#DC2626">NXDOMAIN</text>
    <rect x="352" y="235" width="95" height="52" rx="8" fill="#F0FDF4" stroke="#22C55E" stroke-width="1.5"/>
    <text x="400" y="258" text-anchor="middle" font-family="Microsoft YaHei, SimHei, sans-serif" font-size="11" fill="#15803D">真实 IPv4</text>
    <text x="400" y="275" text-anchor="middle" font-family="Microsoft YaHei, SimHei, sans-serif" font-size="11" font-weight="bold" fill="#16A34A">A 记录</text>
    <rect x="460" y="235" width="95" height="52" rx="8" fill="#EFF6FF" stroke="#2563EB" stroke-width="1.5"/>
    <text x="507" y="262" text-anchor="middle" font-family="Consolas, monospace" font-size="10" fill="#1D4ED8">relay_to_upstream()</text>
    <line x1="400" y1="214" x2="292" y2="235" stroke="#94A3B8" stroke-width="1.5"/>
    <line x1="400" y1="214" x2="400" y2="235" stroke="#94A3B8" stroke-width="1.5"/>
    <line x1="400" y1="214" x2="507" y2="235" stroke="#94A3B8" stroke-width="1.5"/>
    <text x="400" y="318" text-anchor="middle" font-family="Microsoft YaHei, SimHei, sans-serif" font-size="11" fill="#64748B">本地拦截 / 本地解析 / 上游中继</text>
  </g>
  <g filter="url(#shadow)">
    <rect x="650" y="155" width="120" height="90" rx="12" fill="#FFFFFF" stroke="#94A3B8" stroke-width="2"/>
    <text x="710" y="192" text-anchor="middle" font-family="Microsoft YaHei, SimHei, sans-serif" font-size="13" font-weight="bold" fill="#1E293B">上游 DNS</text>
    <text x="710" y="215" text-anchor="middle" font-family="Consolas, monospace" font-size="11" fill="#64748B">114.114.114.114</text>
    <text x="710" y="232" text-anchor="middle" font-family="Consolas, monospace" font-size="11" fill="#64748B">:53</text>
  </g>
  <line x1="150" y1="200" x2="218" y2="200" stroke="#2563EB" stroke-width="2.5" marker-end="url(#arrow)"/>
  <text x="184" y="188" text-anchor="middle" font-family="Consolas, monospace" font-size="11" fill="#2563EB">UDP:53</text>
  <line x1="580" y1="261" x2="648" y2="210" stroke="#2563EB" stroke-width="2" marker-end="url(#arrow)"/>
</svg>
