<?xml version="1.0" encoding="UTF-8"?>
<svg xmlns="http://www.w3.org/2000/svg" width="680" height="200" viewBox="0 0 680 200">
  <defs>
    <marker id="ar" markerWidth="10" markerHeight="8" refX="9" refY="4" orient="auto">
      <path d="M0,0 L10,4 L0,8 Z" fill="#475569"/>
    </marker>
  </defs>
  <rect width="680" height="200" fill="#F8FAFC"/>
  <text x="340" y="24" text-anchor="middle" font-family="Arial, sans-serif" font-size="14" font-weight="bold" fill="#1E3A8A">DNS query path via relay</text>
  <rect x="30" y="60" width="90" height="50" rx="8" fill="#FFFFFF" stroke="#64748B" stroke-width="2"/>
  <text x="75" y="88" text-anchor="middle" font-family="Arial, sans-serif" font-size="12" fill="#334155">Client</text>
  <rect x="150" y="52" width="110" height="66" rx="10" fill="#2563EB" stroke="#1D4ED8" stroke-width="2"/>
  <text x="205" y="76" text-anchor="middle" font-family="Arial, sans-serif" font-size="11" font-weight="bold" fill="#FFFFFF">DNS Relay</text>
  <text x="205" y="96" text-anchor="middle" font-family="Consolas, monospace" font-size="9" fill="#E0E7FF">UDP :53</text>
  <rect x="300" y="60" width="100" height="50" rx="8" fill="#FEF3C7" stroke="#D97706"/>
  <text x="350" y="88" text-anchor="middle" font-family="Arial, sans-serif" font-size="11" fill="#92400E">dnsrelay.txt</text>
  <rect x="430" y="60" width="110" height="50" rx="8" fill="#FFFFFF" stroke="#64748B"/>
  <text x="475" y="88" text-anchor="middle" font-family="Arial, sans-serif" font-size="11" fill="#334155">114.114.114.114</text>
  <rect x="560" y="60" width="90" height="50" rx="8" fill="#DCFCE7" stroke="#22C55E"/>
  <text x="605" y="82" text-anchor="middle" font-family="Arial, sans-serif" font-size="11" fill="#15803D">IP answer</text>
  <text x="605" y="98" text-anchor="middle" font-family="Consolas, monospace" font-size="9" fill="#166534">to client</text>
  <line x1="120" y1="85" x2="150" y2="85" stroke="#475569" stroke-width="2" marker-end="url(#ar)"/>
  <line x1="260" y1="85" x2="300" y2="85" stroke="#475569" stroke-width="2" marker-end="url(#ar)"/>
  <line x1="400" y1="85" x2="430" y2="85" stroke="#475569" stroke-width="2" marker-end="url(#ar)"/>
  <line x1="540" y1="85" x2="560" y2="85" stroke="#475569" stroke-width="2" marker-end="url(#ar)"/>
  <path d="M 205 118 L 205 145 L 350 145 L 350 110" stroke="#94A3B8" stroke-width="1.5" fill="none" marker-end="url(#ar)"/>
  <text x="270" y="158" font-family="Arial, sans-serif" font-size="10" fill="#64748B">hit config: local answer or block</text>
  <text x="340" y="178" text-anchor="middle" font-family="Arial, sans-serif" font-size="10" fill="#64748B">no hit: forward upstream, restore ID</text>
</svg>
