<?xml version="1.0" encoding="UTF-8"?>
<svg xmlns="http://www.w3.org/2000/svg" width="640" height="200" viewBox="0 0 640 200">
  <defs>
    <marker id="m" markerWidth="10" markerHeight="8" refX="9" refY="4" orient="auto">
      <path d="M0,0 L10,4 L0,8 Z" fill="#2563EB"/>
    </marker>
  </defs>
  <rect width="640" height="200" fill="#F8FAFC"/>
  <text x="320" y="22" text-anchor="middle" font-family="Arial, sans-serif" font-size="14" font-weight="bold" fill="#1E3A8A">Upstream relay and ID restore</text>
  <rect x="24" y="50" width="100" height="48" rx="8" fill="#FFFFFF" stroke="#64748B"/>
  <text x="74" y="78" text-anchor="middle" font-family="Arial, sans-serif" font-size="11" fill="#334155">Client</text>
  <text x="74" y="94" text-anchor="middle" font-family="Consolas, monospace" font-size="9" fill="#64748B">ID=0xABCD</text>
  <rect x="160" y="42" width="120" height="64" rx="10" fill="#2563EB"/>
  <text x="220" y="66" text-anchor="middle" font-family="Arial, sans-serif" font-size="11" fill="#FFFFFF">Relay</text>
  <text x="220" y="84" text-anchor="middle" font-family="Consolas, monospace" font-size="9" fill="#E0E7FF">new_id map</text>
  <rect x="360" y="50" width="120" height="48" rx="8" fill="#FFFFFF" stroke="#64748B"/>
  <text x="400" y="78" text-anchor="middle" font-family="Consolas, monospace" font-size="10" fill="#334155">114.114.114.114</text>
  <rect x="520" y="50" width="100" height="48" rx="8" fill="#DCFCE7" stroke="#22C55E"/>
  <text x="570" y="78" text-anchor="middle" font-family="Arial, sans-serif" font-size="11" fill="#15803D">response</text>
  <line x1="124" y1="74" x2="160" y2="74" stroke="#475569" stroke-width="2" marker-end="url(#m)"/>
  <line x1="280" y1="74" x2="360" y2="74" stroke="#2563EB" stroke-width="2" marker-end="url(#m)"/>
  <line x1="460" y1="74" x2="520" y2="74" stroke="#22C55E" stroke-width="2" marker-end="url(#m)"/>
  <text x="320" y="140" text-anchor="middle" font-family="Consolas, monospace" font-size="10" fill="#475569">timeout 3s -&gt; SERVFAIL (fix-B)</text>
  <text x="320" y="168" text-anchor="middle" font-family="Arial, sans-serif" font-size="10" fill="#64748B">restore original ID before sendto client</text>
</svg>
