<?xml version="1.0" encoding="UTF-8"?>
<svg xmlns="http://www.w3.org/2000/svg" width="720" height="280" viewBox="0 0 720 280">
  <rect width="720" height="280" fill="#F8FAFC"/>
  <text x="360" y="26" text-anchor="middle" font-family="Arial, sans-serif" font-size="15" font-weight="bold" fill="#1E3A8A">Test cases and screenshots</text>
  <rect x="24" y="48" width="200" height="56" rx="8" fill="#EFF6FF" stroke="#3B82F6"/>
  <text x="124" y="72" text-anchor="middle" font-family="Arial, sans-serif" font-size="11" fill="#1D4ED8">Setup</text>
  <text x="124" y="92" text-anchor="middle" font-family="Consolas, monospace" font-size="10" fill="#334155">make / start / 208 entries</text>
  <rect x="24" y="112" width="200" height="44" rx="8" fill="#DCFCE7" stroke="#22C55E"/>
  <text x="124" y="138" text-anchor="middle" font-family="Consolas, monospace" font-size="10" fill="#166534">#1 bupt local A</text>
  <rect x="24" y="148" width="200" height="44" rx="8" fill="#DCFCE7" stroke="#22C55E"/>
  <text x="124" y="174" text-anchor="middle" font-family="Consolas, monospace" font-size="10" fill="#166534">#2 sina local A</text>
  <rect x="24" y="188" width="200" height="44" rx="8" fill="#FEE2E2" stroke="#EF4444"/>
  <text x="124" y="214" text-anchor="middle" font-family="Consolas, monospace" font-size="10" fill="#B91C1C">#3 008.cn NXDOMAIN</text>
  <rect x="248" y="112" width="200" height="44" rx="8" fill="#EFF6FF" stroke="#2563EB"/>
  <text x="348" y="138" text-anchor="middle" font-family="Consolas, monospace" font-size="10" fill="#1D4ED8">#4 baidu.com relay</text>
  <rect x="248" y="148" width="200" height="44" rx="8" fill="#FEF3C7" stroke="#D97706"/>
  <text x="348" y="174" text-anchor="middle" font-family="Consolas, monospace" font-size="10" fill="#92400E">#5 bupt MX fix-A</text>
  <rect x="248" y="188" width="200" height="44" rx="8" fill="#FEE2E2" stroke="#EF4444"/>
  <text x="348" y="214" text-anchor="middle" font-family="Consolas, monospace" font-size="10" fill="#B91C1C">#6 fix-B SERVFAIL*</text>
  <rect x="472" y="48" width="200" height="204" rx="10" fill="#FFFFFF" stroke="#94A3B8" stroke-width="2"/>
  <text x="572" y="76" text-anchor="middle" font-family="Arial, sans-serif" font-size="12" fill="#334155">Terminal PNG</text>
  <text x="572" y="100" text-anchor="middle" font-family="Consolas, monospace" font-size="9" fill="#64748B">nslookup / dig full</text>
  <text x="572" y="130" text-anchor="middle" font-family="Arial, sans-serif" font-size="10" fill="#64748B">port 15353 test</text>
  <text x="572" y="180" text-anchor="middle" font-family="Consolas, monospace" font-size="9" fill="#64748B">run_verification.sh</text>
  <text x="572" y="220" text-anchor="middle" font-family="Arial, sans-serif" font-size="9" fill="#94A3B8">*iptables block upstream</text>
</svg>
