<?xml version="1.0" encoding="UTF-8"?>
<svg xmlns="http://www.w3.org/2000/svg" width="800" height="320" viewBox="0 0 800 320">
  <defs>
    <marker id="a" markerWidth="10" markerHeight="8" refX="9" refY="4" orient="auto">
      <path d="M0,0 L10,4 L0,8 Z" fill="#475569"/>
    </marker>
    <marker id="b" markerWidth="10" markerHeight="8" refX="9" refY="4" orient="auto">
      <path d="M0,0 L10,4 L0,8 Z" fill="#2563EB"/>
    </marker>
  </defs>
  <rect width="800" height="320" fill="#F8FAFC"/>
  <text x="400" y="28" text-anchor="middle" font-family="Arial, sans-serif" font-size="15" font-weight="bold" fill="#1E3A8A">Three core modes</text>
  <rect x="40" y="50" width="100" height="56" rx="10" fill="#FFFFFF" stroke="#64748B" stroke-width="2"/>
  <text x="90" y="82" text-anchor="middle" font-family="Arial, sans-serif" font-size="13" fill="#334155">Client</text>
  <rect x="200" y="44" width="140" height="68" rx="12" fill="#2563EB" stroke="#1D4ED8" stroke-width="2"/>
  <text x="270" y="78" text-anchor="middle" font-family="Arial, sans-serif" font-size="13" font-weight="bold" fill="#FFFFFF">DNS Relay</text>
  <line x1="140" y1="78" x2="200" y2="78" stroke="#475569" stroke-width="2" marker-end="url(#a)"/>
  <rect x="400" y="48" width="120" height="64" rx="10" fill="#FEE2E2" stroke="#EF4444" stroke-width="2"/>
  <text x="460" y="72" text-anchor="middle" font-family="Arial, sans-serif" font-size="12" fill="#B91C1C">BLOCK</text>
  <text x="460" y="92" text-anchor="middle" font-family="Consolas, monospace" font-size="10" fill="#DC2626">0.0.0.0</text>
  <text x="460" y="108" text-anchor="middle" font-family="Consolas, monospace" font-size="10" fill="#DC2626">NXDOMAIN</text>
  <rect x="400" y="128" width="120" height="64" rx="10" fill="#DCFCE7" stroke="#22C55E" stroke-width="2"/>
  <text x="460" y="152" text-anchor="middle" font-family="Arial, sans-serif" font-size="12" fill="#15803D">LOCAL A</text>
  <text x="460" y="172" text-anchor="middle" font-family="Consolas, monospace" font-size="10" fill="#166534">QTYPE=A</text>
  <rect x="400" y="208" width="120" height="64" rx="10" fill="#EFF6FF" stroke="#2563EB" stroke-width="2"/>
  <text x="460" y="232" text-anchor="middle" font-family="Arial, sans-serif" font-size="12" fill="#1D4ED8">RELAY</text>
  <text x="460" y="252" text-anchor="middle" font-family="Consolas, monospace" font-size="10" fill="#1E40AF">not in table</text>
  <line x1="340" y1="72" x2="400" y2="72" stroke="#475569" stroke-width="1.5" marker-end="url(#a)"/>
  <line x1="340" y1="78" x2="400" y2="160" stroke="#475569" stroke-width="1.5" marker-end="url(#a)"/>
  <line x1="340" y1="78" x2="400" y2="240" stroke="#475569" stroke-width="1.5" marker-end="url(#a)"/>
  <line x1="520" y1="240" x2="575" y2="240" stroke="#2563EB" stroke-width="2" marker-end="url(#b)"/>
  <rect x="575" y="216" width="158" height="48" rx="10" fill="#FFFFFF" stroke="#2563EB" stroke-width="2"/>
  <text x="649" y="236" text-anchor="middle" font-family="Arial, sans-serif" font-size="10" fill="#64748B">Upstream DNS</text>
  <text x="649" y="252" text-anchor="middle" font-family="Consolas, monospace" font-size="12" font-weight="bold" fill="#1E40AF">114.114.114.114</text>
  <text x="400" y="300" text-anchor="middle" font-family="Arial, sans-serif" font-size="11" fill="#64748B">e.g. 008.cn / bupt / baidu.com</text>
</svg>
